<?xml version="1.0" encoding="UTF-8" standalone="no"?>
<svg
   xmlns:dc="http://purl.org/dc/elements/1.1/"
   xmlns:cc="http://creativecommons.org/ns#"
   xmlns:rdf="http://www.w3.org/1999/02/22-rdf-syntax-ns#"
   xmlns:svg="http://www.w3.org/2000/svg"
   xmlns="http://www.w3.org/2000/svg"
   xmlns:sodipodi="http://sodipodi.sourceforge.net/DTD/sodipodi-0.dtd"
   xmlns:inkscape="http://www.inkscape.org/namespaces/inkscape"
   version="1.1"
   id="Your_Icon"
   x="0px"
   y="0px"
   width="66.648148"
   height="13.682962"
   viewBox="5 -10 66.648148 18.471999"
   enable-background="new 0 0 100 100"
   xml:space="preserve"
   inkscape:version="0.91 r13725"
   sodipodi:docname="Formula 1 Car.svg"><metadata
     id="metadata3484"><rdf:RDF><cc:Work
         rdf:about=""><dc:format>image/svg+xml</dc:format><dc:type
           rdf:resource="http://purl.org/dc/dcmitype/StillImage" /><dc:title /></cc:Work></rdf:RDF></metadata><defs
     id="defs3482" /><sodipodi:namedview
     pagecolor="#ffffff"
     bordercolor="#666666"
     borderopacity="1"
     objecttolerance="10"
     gridtolerance="10"
     guidetolerance="10"
     inkscape:pageopacity="0"
     inkscape:pageshadow="2"
     inkscape:window-width="1143"
     inkscape:window-height="730"
     id="namedview3480"
     showgrid="false"
     fit-margin-top="0"
     fit-margin-left="0"
     fit-margin-right="0"
     fit-margin-bottom="0"
     inkscape:zoom="6"
     inkscape:cx="51.378286"
     inkscape:cy="-10.131602"
     inkscape:window-x="0"
     inkscape:window-y="0"
     inkscape:window-maximized="0"
     inkscape:current-layer="Your_Icon" /><g
     id="g3464"
     transform="translate(-17.500001,-50.764)"><g
       id="g3466"><g
         id="g3468"><g
           id="g3470" /></g><g
         id="g3472" /></g></g><path
     d="m 37.920576,-4.147 -5.339,0 0,-3.903 c 0,-1.077 0.873,-1.95 1.95,-1.95 l 1.438,0 c 1.078,0 1.951,0.873 1.951,1.95 l 0,3.903 z m 15.393,2.12 c -6.807,0 -15.118,0 -23.151,0 0,-2.696 0,-5.896 0,-7.973 -7.165,0 -15.609,1.028 -24.2820002,4.962 L 8.4905759,-10 l -15.1540003,0 3.7390002,5.771 c 1.333,-0.866 2.91899992,-1.375 4.624,-1.375 4.693,0 8.5110002,3.819 8.5110002,8.512 0,1.84 -0.5930001,3.541 -1.5900001,4.936 l 44.6930001,0 c -0.997,-1.395 -1.591,-3.096 -1.591,-4.936 0,-1.84 0.594,-3.541 1.591,-4.935 z m 6.922,-0.631 c -3.073,0 -5.565,2.494 -5.565,5.566 0,3.074 2.492,5.564 5.565,5.564 3.073,0 5.563,-2.49 5.563,-5.564 0.001,-3.072 -2.489,-5.566 -5.563,-5.566 z m 15.062,8.105 1.56,-5.197 c 0,0 -4.936,-2.276 -8.921,-2.276 -0.16,0 -0.436,0 -0.779,0 0.996,1.394 1.59,3.095 1.59,4.935 0,1.842 -0.596,3.544 -1.594,4.939 l 16.158,0 0,-1.947 -8.014,-0.454 z M 1.6995758,-2.658 c -3.072,0 -5.564,2.494 -5.564,5.566 0,3.074 2.493,5.564 5.564,5.564 3.074,0 5.565,-2.49 5.565,-5.564 0,-3.072 -2.49,-5.566 -5.565,-5.566 z"
     id="path3474"
     inkscape:connector-curvature="0"
     style="fill:#ffffff;fill-opacity:1" /></svg>